<svg xmlns="http://www.w3.org/2000/svg" xmlns:xlink="https://www.w3.org/1999/xlink" width="1990.83" height="1274.42" viewBox="0 0 1990.83 1274.42"><defs><linearGradient id="linear-gradient" y1="0.5" x2="1" y2="0.5" gradientUnits="objectBoundingBox"><stop offset="0" stop-color="#0045ff"></stop><stop offset="0.09" stop-color="#0045fb" stop-opacity="0.98"></stop><stop offset="0.22" stop-color="#0043f1" stop-opacity="0.91"></stop><stop offset="0.36" stop-color="#0041df" stop-opacity="0.8"></stop><stop offset="0.52" stop-color="#003ec7" stop-opacity="0.639"></stop><stop offset="0.69" stop-color="#003aa7" stop-opacity="0.439"></stop><stop offset="0.87" stop-color="#003682" stop-opacity="0.2"></stop><stop offset="1" stop-color="#003263" stop-opacity="0"></stop></linearGradient><clipPath id="clip-path"><rect id="Rectangle_1" data-name="Rectangle 1" width="1990.83" height="1274.42" transform="translate(1427.65 210.54)" fill="none"></rect></clipPath><linearGradient id="linear-gradient-2" x1="0.459" y1="0.534" x2="0.9" y2="0.929" gradientUnits="objectBoundingBox"><stop offset="0" stop-color="#0045ff" stop-opacity="0.729"></stop><stop offset="1" stop-color="#052478"></stop></linearGradient><linearGradient id="linear-gradient-3" x1="0.5" x2="0.5" y2="1" gradientUnits="objectBoundingBox"><stop offset="0" stop-color="#0045ff"></stop><stop offset="1" stop-color="#002380"></stop></linearGradient><clipPath id="clip-path-2"><path id="Path_6" data-name="Path 6" d="M1202,340.23,861.75,0H0V1274.41H353.36L1202,428.12a62.17,62.17,0,0,0,0-87.89Z" transform="translate(1423.07 210.54)" fill="url(#linear-gradient)"></path></clipPath></defs><g id="Asset_3" data-name="Asset 3" transform="translate(-1427.65 -210.54)"><g id="Layer_2" data-name="Layer 2"><g id="Objects"><g id="Group_4" data-name="Group 4" clip-path="url(#clip-path)"><path id="Path_1" data-name="Path 1" d="M3508.2,1524.07V590.56l-938.59,939.83Z" fill="url(#linear-gradient-2)"></path><path id="Path_2" data-name="Path 2" d="M3471.47,1505.7V1025.46L2991.23,1505.7Z" fill="url(#linear-gradient-3)"></path><g id="Group_1" data-name="Group 1" opacity="0.8"><path id="Path_3" data-name="Path 3" d="M-22.26,1.11V1275.53l533.11-1.12L1301.7,482.13a138.56,138.56,0,0,0-.08-195.86L1015.34,0Z" transform="translate(1423.07 210.54)" fill="url(#linear-gradient)"></path></g><path id="Path_4" data-name="Path 4" d="M1202,340.23,861.75,0H0V1274.41H353.36L1202,428.12a62.17,62.17,0,0,0,0-87.89Z" transform="translate(1423.07 210.54)" fill="url(#linear-gradient)"></path><g id="Group_3" data-name="Group 3" opacity="0.27"><path id="Path_5" data-name="Path 5" d="M1202,340.23,861.75,0H0V1274.41H353.36L1202,428.12a62.17,62.17,0,0,0,0-87.89Z" transform="translate(1423.07 210.54)" fill="url(#linear-gradient)"></path><g id="Group_2" data-name="Group 2" clip-path="url(#clip-path-2)"><line id="Line_1" data-name="Line 1" x1="1590.14" y2="1590.14" transform="translate(1676.82 0.71)" stroke="#707070" stroke-miterlimit="10" stroke-width="1" fill="url(#linear-gradient)"></line><line id="Line_2" data-name="Line 2" x1="1590.13" y2="1590.14" transform="translate(1649.35 0.71)" stroke="#707070" stroke-miterlimit="10" stroke-width="1.02" fill="url(#linear-gradient)"></line><line id="Line_3" data-name="Line 3" x1="1590.14" y2="1590.14" transform="translate(1621.87 0.71)" stroke="#707070" stroke-miterlimit="10" stroke-width="1.03" fill="url(#linear-gradient)"></line><line id="Line_4" data-name="Line 4" x1="1590.14" y2="1590.14" transform="translate(1594.39 0.71)" stroke="#707070" stroke-miterlimit="10" stroke-width="1.05" fill="url(#linear-gradient)"></line><line id="Line_5" data-name="Line 5" x1="1590.14" y2="1590.14" transform="translate(1566.91 0.71)" stroke="#707070" stroke-miterlimit="10" stroke-width="1.07" fill="url(#linear-gradient)"></line><line id="Line_6" data-name="Line 6" x1="1590.14" y2="1590.14" transform="translate(1539.44 0.71)" stroke="#707070" stroke-miterlimit="10" stroke-width="1.08" fill="url(#linear-gradient)"></line><line id="Line_7" data-name="Line 7" x1="1590.14" y2="1590.14" transform="translate(1511.96 0.71)" stroke="#707070" stroke-miterlimit="10" stroke-width="1.1" fill="url(#linear-gradient)"></line><line id="Line_8" data-name="Line 8" x1="1590.14" y2="1590.14" transform="translate(1484.48 0.71)" stroke="#707070" stroke-miterlimit="10" stroke-width="1.11" fill="url(#linear-gradient)"></line><line id="Line_9" data-name="Line 9" x1="1590.14" y2="1590.14" transform="translate(1457 0.71)" stroke="#707070" stroke-miterlimit="10" stroke-width="1.13" fill="url(#linear-gradient)"></line><line id="Line_10" data-name="Line 10" x1="1590.14" y2="1590.14" transform="translate(1429.53 0.71)" stroke="#707070" stroke-miterlimit="10" stroke-width="1.15" fill="url(#linear-gradient)"></line><line id="Line_11" data-name="Line 11" x1="1590.14" y2="1590.14" transform="translate(1402.05 0.71)" stroke="#707070" stroke-miterlimit="10" stroke-width="1.16" fill="url(#linear-gradient)"></line><line id="Line_12" data-name="Line 12" x1="1590.14" y2="1590.14" transform="translate(1374.57 0.71)" stroke="#707070" stroke-miterlimit="10" stroke-width="1.18" fill="url(#linear-gradient)"></line><line id="Line_13" data-name="Line 13" x1="1590.14" y2="1590.14" transform="translate(1347.09 0.71)" stroke="#707070" stroke-miterlimit="10" stroke-width="1.2" fill="url(#linear-gradient)"></line><line id="Line_14" data-name="Line 14" x1="1590.14" y2="1590.14" transform="translate(1319.62 0.71)" stroke="#707070" stroke-miterlimit="10" stroke-width="1.21" fill="url(#linear-gradient)"></line><line id="Line_15" data-name="Line 15" x1="1590.14" y2="1590.14" transform="translate(1292.14 0.71)" stroke="#707070" stroke-miterlimit="10" stroke-width="1.23" fill="url(#linear-gradient)"></line><line id="Line_16" data-name="Line 16" x1="1590.14" y2="1590.14" transform="translate(1264.66 0.71)" stroke="#707070" stroke-miterlimit="10" stroke-width="1.25" fill="url(#linear-gradient)"></line><line id="Line_17" data-name="Line 17" x1="1590.14" y2="1590.14" transform="translate(1237.19 0.71)" stroke="#707070" stroke-miterlimit="10" stroke-width="1.26" fill="url(#linear-gradient)"></line><line id="Line_18" data-name="Line 18" x1="1590.14" y2="1590.14" transform="translate(1209.71 0.71)" stroke="#707070" stroke-miterlimit="10" stroke-width="1.28" fill="url(#linear-gradient)"></line><line id="Line_19" data-name="Line 19" x1="1590.14" y2="1590.14" transform="translate(1182.23 0.71)" stroke="#707070" stroke-miterlimit="10" stroke-width="1.3" fill="url(#linear-gradient)"></line><line id="Line_20" data-name="Line 20" x1="1590.14" y2="1590.14" transform="translate(1154.75 0.71)" stroke="#707070" stroke-miterlimit="10" stroke-width="1.31" fill="url(#linear-gradient)"></line><line id="Line_21" data-name="Line 21" x1="1590.14" y2="1590.14" transform="translate(1127.28 0.71)" stroke="#707070" stroke-miterlimit="10" stroke-width="1.33" fill="url(#linear-gradient)"></line><line id="Line_22" data-name="Line 22" x1="1590.14" y2="1590.14" transform="translate(1099.8 0.71)" stroke="#707070" stroke-miterlimit="10" stroke-width="1.34" fill="url(#linear-gradient)"></line><line id="Line_23" data-name="Line 23" x1="1590.14" y2="1590.14" transform="translate(1072.32 0.71)" stroke="#707070" stroke-miterlimit="10" stroke-width="1.36" fill="url(#linear-gradient)"></line><line id="Line_24" data-name="Line 24" x1="1590.14" y2="1590.14" transform="translate(1044.84 0.71)" stroke="#707070" stroke-miterlimit="10" stroke-width="1.38" fill="url(#linear-gradient)"></line><line id="Line_25" data-name="Line 25" x1="1590.14" y2="1590.14" transform="translate(1017.37 0.71)" stroke="#707070" stroke-miterlimit="10" stroke-width="1.39" fill="url(#linear-gradient)"></line><line id="Line_26" data-name="Line 26" x1="1590.14" y2="1590.14" transform="translate(989.89 0.71)" stroke="#707070" stroke-miterlimit="10" stroke-width="1.41" fill="url(#linear-gradient)"></line><line id="Line_27" data-name="Line 27" x1="1590.14" y2="1590.14" transform="translate(962.41 0.71)" stroke="#707070" stroke-miterlimit="10" stroke-width="1.43" fill="url(#linear-gradient)"></line><line id="Line_28" data-name="Line 28" x1="1590.13" y2="1590.14" transform="translate(934.94 0.71)" stroke="#707070" stroke-miterlimit="10" stroke-width="1.44" fill="url(#linear-gradient)"></line><line id="Line_29" data-name="Line 29" x1="1590.14" y2="1590.14" transform="translate(907.46 0.71)" stroke="#707070" stroke-miterlimit="10" stroke-width="1.46" fill="url(#linear-gradient)"></line><line id="Line_30" data-name="Line 30" x1="1590.14" y2="1590.14" transform="translate(879.98 0.71)" stroke="#707070" stroke-miterlimit="10" stroke-width="1.48" fill="url(#linear-gradient)"></line><line id="Line_31" data-name="Line 31" x1="1590.14" y2="1590.14" transform="translate(852.5 0.71)" stroke="#707070" stroke-miterlimit="10" stroke-width="1.49" fill="url(#linear-gradient)"></line><line id="Line_32" data-name="Line 32" x1="1590.14" y2="1590.14" transform="translate(825.03 0.71)" stroke="#707070" stroke-miterlimit="10" stroke-width="1.51" fill="url(#linear-gradient)"></line><line id="Line_33" data-name="Line 33" x1="1590.14" y2="1590.14" transform="translate(797.55 0.71)" stroke="#707070" stroke-miterlimit="10" stroke-width="1.52" fill="url(#linear-gradient)"></line><line id="Line_34" data-name="Line 34" x1="1590.14" y2="1590.14" transform="translate(770.07 0.71)" stroke="#707070" stroke-miterlimit="10" stroke-width="1.54" fill="url(#linear-gradient)"></line><line id="Line_35" data-name="Line 35" x1="1590.14" y2="1590.14" transform="translate(742.59 0.71)" stroke="#707070" stroke-miterlimit="10" stroke-width="1.56" fill="url(#linear-gradient)"></line><line id="Line_36" data-name="Line 36" x1="1590.14" y2="1590.14" transform="translate(715.12 0.71)" stroke="#707070" stroke-miterlimit="10" stroke-width="1.57" fill="url(#linear-gradient)"></line><line id="Line_37" data-name="Line 37" x1="1590.14" y2="1590.14" transform="translate(687.64 0.71)" stroke="#707070" stroke-miterlimit="10" stroke-width="1.59" fill="url(#linear-gradient)"></line><line id="Line_38" data-name="Line 38" x1="1590.14" y2="1590.14" transform="translate(660.16 0.71)" stroke="#707070" stroke-miterlimit="10" stroke-width="1.61" fill="url(#linear-gradient)"></line><line id="Line_39" data-name="Line 39" x1="1590.13" y2="1590.14" transform="translate(632.69 0.71)" stroke="#707070" stroke-miterlimit="10" stroke-width="1.62" fill="url(#linear-gradient)"></line><line id="Line_40" data-name="Line 40" x1="1590.14" y2="1590.14" transform="translate(605.21 0.71)" stroke="#707070" stroke-miterlimit="10" stroke-width="1.64" fill="url(#linear-gradient)"></line><line id="Line_41" data-name="Line 41" x1="1590.14" y2="1590.14" transform="translate(577.73 0.71)" stroke="#707070" stroke-miterlimit="10" stroke-width="1.66" fill="url(#linear-gradient)"></line><line id="Line_42" data-name="Line 42" x1="1590.14" y2="1590.14" transform="translate(550.25 0.71)" stroke="#707070" stroke-miterlimit="10" stroke-width="1.67" fill="url(#linear-gradient)"></line><line id="Line_43" data-name="Line 43" x1="1590.14" y2="1590.14" transform="translate(522.78 0.71)" stroke="#707070" stroke-miterlimit="10" stroke-width="1.69" fill="url(#linear-gradient)"></line><line id="Line_44" data-name="Line 44" x1="1590.14" y2="1590.14" transform="translate(495.3 0.71)" stroke="#707070" stroke-miterlimit="10" stroke-width="1.7" fill="url(#linear-gradient)"></line><line id="Line_45" data-name="Line 45" x1="1590.14" y2="1590.14" transform="translate(467.82 0.71)" stroke="#707070" stroke-miterlimit="10" stroke-width="1.72" fill="url(#linear-gradient)"></line><line id="Line_46" data-name="Line 46" x1="1590.14" y2="1590.14" transform="translate(440.34 0.71)" stroke="#707070" stroke-miterlimit="10" stroke-width="1.74" fill="url(#linear-gradient)"></line><line id="Line_47" data-name="Line 47" x1="1590.14" y2="1590.14" transform="translate(412.87 0.71)" stroke="#707070" stroke-miterlimit="10" stroke-width="1.75" fill="url(#linear-gradient)"></line><line id="Line_48" data-name="Line 48" x1="1590.14" y2="1590.14" transform="translate(385.39 0.71)" stroke="#707070" stroke-miterlimit="10" stroke-width="1.77" fill="url(#linear-gradient)"></line><line id="Line_49" data-name="Line 49" x1="1590.14" y2="1590.14" transform="translate(357.91 0.71)" stroke="#707070" stroke-miterlimit="10" stroke-width="1.79" fill="url(#linear-gradient)"></line><line id="Line_50" data-name="Line 50" x1="1590.14" y2="1590.14" transform="translate(330.43 0.71)" stroke="#707070" stroke-miterlimit="10" stroke-width="1.8" fill="url(#linear-gradient)"></line><line id="Line_51" data-name="Line 51" x1="1590.14" y2="1590.14" transform="translate(302.96 0.71)" stroke="#707070" stroke-miterlimit="10" stroke-width="1.82" fill="url(#linear-gradient)"></line><line id="Line_52" data-name="Line 52" x1="1590.14" y2="1590.14" transform="translate(275.48 0.71)" stroke="#707070" stroke-miterlimit="10" stroke-width="1.84" fill="url(#linear-gradient)"></line><line id="Line_53" data-name="Line 53" x1="1590.14" y2="1590.14" transform="translate(248 0.71)" stroke="#707070" stroke-miterlimit="10" stroke-width="1.85" fill="url(#linear-gradient)"></line><line id="Line_54" data-name="Line 54" x1="1590.13" y2="1590.14" transform="translate(220.53 0.71)" stroke="#707070" stroke-miterlimit="10" stroke-width="1.87" fill="url(#linear-gradient)"></line><line id="Line_55" data-name="Line 55" x1="1590.14" y2="1590.14" transform="translate(193.05 0.71)" stroke="#707070" stroke-miterlimit="10" stroke-width="1.89" fill="url(#linear-gradient)"></line><line id="Line_56" data-name="Line 56" x1="1590.14" y2="1590.14" transform="translate(165.57 0.71)" stroke="#707070" stroke-miterlimit="10" stroke-width="1.9" fill="url(#linear-gradient)"></line><line id="Line_57" data-name="Line 57" x1="1590.14" y2="1590.14" transform="translate(138.09 0.71)" stroke="#707070" stroke-miterlimit="10" stroke-width="1.92" fill="url(#linear-gradient)"></line><line id="Line_58" data-name="Line 58" x1="1590.14" y2="1590.14" transform="translate(110.62 0.71)" stroke="#707070" stroke-miterlimit="10" stroke-width="1.93" fill="url(#linear-gradient)"></line><line id="Line_59" data-name="Line 59" x1="1590.14" y2="1590.14" transform="translate(83.14 0.71)" stroke="#707070" stroke-miterlimit="10" stroke-width="1.95" fill="url(#linear-gradient)"></line><line id="Line_60" data-name="Line 60" x1="1590.14" y2="1590.14" transform="translate(55.66 0.71)" stroke="#707070" stroke-miterlimit="10" stroke-width="1.97" fill="url(#linear-gradient)"></line><line id="Line_61" data-name="Line 61" x1="1590.14" y2="1590.14" transform="translate(28.18 0.71)" stroke="#707070" stroke-miterlimit="10" stroke-width="1.98" fill="url(#linear-gradient)"></line><line id="Line_62" data-name="Line 62" x1="1590.14" y2="1590.14" transform="translate(0.71 0.71)" stroke="#707070" stroke-miterlimit="10" stroke-width="2" fill="url(#linear-gradient)"></line></g></g><path id="Path_7" data-name="Path 7" d="M1852.21,1048.73l-145-145a12.46,12.46,0,0,0-17.63,0L1663,930.4a12.46,12.46,0,0,0,0,17.63l92.13,92.13a12.46,12.46,0,0,1,0,17.63l-100.7,100.7a12.46,12.46,0,0,0,0,17.63l35.22,35.22a12.46,12.46,0,0,0,17.63,0l145-145a12.46,12.46,0,0,0-.07-17.61Z" transform="translate(1423.07 210.54)" fill="#0045ff"></path><path id="Path_8" data-name="Path 8" d="M1910.08,1048.73l-145-145a12.46,12.46,0,0,0-17.63,0l-26.65,26.65a12.46,12.46,0,0,0,0,17.63l92.13,92.13a12.46,12.46,0,0,1,0,17.63l-100.7,100.7a12.46,12.46,0,0,0,0,17.63l35.22,35.22a12.46,12.46,0,0,0,17.63,0l145-145a12.46,12.46,0,0,0,0-17.59Z" transform="translate(1423.07 210.54)" fill="#0045ff" opacity="0.52"></path><path id="Path_9" data-name="Path 9" d="M1178.71,497.08,985,303.38a16.67,16.67,0,0,0-23.56,0L925.86,339a16.66,16.66,0,0,0,0,23.55L1049,485.63a16.66,16.66,0,0,1,0,23.55L914.41,643.72a16.67,16.67,0,0,0,0,23.56l47.05,47.05a16.67,16.67,0,0,0,23.56,0l193.69-193.7a16.64,16.64,0,0,0,0-23.55Z" transform="translate(1423.07 210.54)" fill="#0045ff" opacity="0.5"></path><path id="Path_10" data-name="Path 10" d="M1988.53,86,1754-148.57a13.351,13.351,0,0,0-9.445-3.915,13.35,13.35,0,0,0-9.445,3.915L1685-98.46a13.37,13.37,0,0,0,0,18.89l164.41,164.4a13.37,13.37,0,0,1,0,18.89L1683.89,269.24a13.35,13.35,0,0,0,0,18.89l51.23,51.22a13.35,13.35,0,0,0,18.89,0l234.52-234.52a13.36,13.36,0,0,0,0-18.83Z" transform="translate(1423.07 210.54)" fill="#0045ff" opacity="0.6"></path></g></g></g></g></svg>